HIERARCHY
ROOT Hips
{
  OFFSET 0 0 0
  CHANNELS 6 Xposition Yposition Zposition Zrotation Xrotation Yrotation
  JOINT Spine
  {
    OFFSET 0 8.18577 0
    CHANNELS 3 Zrotation Xrotation Yrotation
    JOINT Spine1
    {
      OFFSET 0 23.9492 0
      CHANNELS 3 Zrotation Xrotation Yrotation
      JOINT Neck
      {
        OFFSET 0 23.8508 2.16826
        CHANNELS 3 Zrotation Xrotation Yrotation
        JOINT Head
        {
          OFFSET 0 13.9757 -1.99653
          CHANNELS 3 Zrotation Xrotation Yrotation
          End Site
          {
            OFFSET 0 24.9566 0
          }
        }
      }
      JOINT LeftShoulder
      {
        OFFSET 3.97939 22.162 -0.249083
        CHANNELS 3 Zrotation Xrotation Yrotation
        JOINT LeftArm
        {
          OFFSET 10.8129 0 0
          CHANNELS 3 Zrotation Xrotation Yrotation
          JOINT LeftForeArm
          {
            OFFSET 31.6972 0 0
            CHANNELS 3 Zrotation Xrotation Yrotation
            JOINT LeftHand
            {
              OFFSET 27.0474 0 0
              CHANNELS 3 Zrotation Xrotation Yrotation
              End Site
              {
                OFFSET 14.974 0 0
              }
            }
          }
        }
      }
      JOINT RightShoulder
      {
        OFFSET -4.00645 22.162 -0.249083
        CHANNELS 3 Zrotation Xrotation Yrotation
        JOINT RightArm
        {
          OFFSET -10.8129 0 0
          CHANNELS 3 Zrotation Xrotation Yrotation
          JOINT RightForeArm
          {
            OFFSET -31.6972 0 0
            CHANNELS 3 Zrotation Xrotation Yrotation
            JOINT RightHand
            {
              OFFSET -27.0474 0 0
              CHANNELS 3 Zrotation Xrotation Yrotation
              End Site
              {
                OFFSET -14.974 0 0
              }
            }
          }
        }
      }
    }
  }
  JOINT LeftUpLeg
  {
    OFFSET 9.98265 0 0
    CHANNELS 3 Zrotation Xrotation Yrotation
    JOINT LeftLeg
    {
      OFFSET 0 -38.5116 0
      CHANNELS 3 Zrotation Xrotation Yrotation
      JOINT LeftFoot
      {
        OFFSET 0 -44.7893 0
        CHANNELS 3 Zrotation Xrotation Yrotation
        JOINT LeftToeBase
        {
          OFFSET 0 -6.48872 14.974
          CHANNELS 3 Zrotation Xrotation Yrotation
          End Site
          {
            OFFSET 0 0 3.99306
          }
        }
      }
    }
  }
  JOINT RightUpLeg
  {
    OFFSET -9.98265 0 0
    CHANNELS 3 Zrotation Xrotation Yrotation
    JOINT RightLeg
    {
      OFFSET 0 -38.5116 0
      CHANNELS 3 Zrotation Xrotation Yrotation
      JOINT RightFoot
      {
        OFFSET 0 -44.7893 0
        CHANNELS 3 Zrotation Xrotation Yrotation
        JOINT RightToeBase
        {
          OFFSET 0 -6.48872 14.974
          CHANNELS 3 Zrotation Xrotation Yrotation
          End Site
          {
            OFFSET 0 0 3.99306
          }
        }
      }
    }
  }
}
MOTION
Frames:	12
Frame Time:	0.00833333
-3.5212 82.0002 6.84718 -38.9358 -84.2922 137.891 -0.166856 -13.91 -8.15955 3.92391 -1.04954 -8.10328 -21.6874 13.8265 -22.55 35.712 -15.8354 -13.1271 39.724 -23.7826 7.92454 1.82984 -12.3142 -32.437 33.7025 -9.12275 -28.5122 -3.784 -0.555565 6.96776 -8.81885 12.2808 -3.55416 100.924 48.8705 -49.9726 -13.9152 10.9041 99.5456 4.61646 26.1088 -13.7232 34.8259 -1.23484 -110.506 -11.7144 8.25751 15.8373 -6.28661 6.57862 16.2441 -3.18055e-015 0 2.38542e-015 -4.81602 -9.62426 0.291635 0.716448 7.10524 8.09011 87.8869 64.3985 -68.8042 -1.98785e-015 2.38542e-015 -6.36111e-015 
-3.48041 82.0109 6.81672 -39.6285 -84.4021 137.344 -0.154221 -13.9423 -8.19888 3.88852 -1.11323 -8.14229 -21.79 13.8489 -22.4654 35.7874 -15.8493 -13.0124 39.8184 -23.8482 8.03633 1.77271 -12.284 -32.4439 33.7996 -9.14313 -28.5097 -3.81084 -0.554312 7.04832 -8.83106 12.2486 -3.58585 101.018 48.8986 -50.0118 -13.8329 10.8025 99.5978 4.59752 25.9479 -13.5554 34.8259 -1.23484 -110.506 -11.7144 8.25751 15.8373 -6.28661 6.57862 16.2441 2.78299e-015 3.18055e-015 -1.59028e-015 -4.81602 -9.62426 0.291635 0.716448 7.10524 8.09011 87.8869 64.3985 -68.8042 3.97569e-015 -1.59028e-015 -0 
-3.42563 82.0065 6.78215 -39.6247 -84.4728 137.479 -0.153567 -13.9452 -8.22955 3.88006 -1.10922 -8.17323 -21.8399 13.8931 -22.4068 35.8746 -15.9429 -12.9033 39.9297 -23.9209 8.11628 1.74622 -12.2335 -32.399 33.9011 -9.11479 -28.4925 -3.84654 -0.506479 7.09263 -8.84248 12.2991 -3.59775 100.864 48.8459 -49.835 -13.6779 10.8132 99.8206 5.1289 25.7747 -13.8843 34.8259 -1.23484 -110.506 -11.7144 8.25751 15.8373 -6.28661 6.57862 16.2441 -1.19271e-015 -6.36111e-015 -1.59028e-015 -4.81602 -9.62426 0.291635 0.716448 7.10524 8.09011 87.8869 64.3985 -68.8042 -3.97569e-015 2.38542e-015 -0 
-3.36247 81.9947 6.74704 -39.1874 -84.5295 138.051 -0.129911 -13.8773 -8.25757 3.85335 -1.18451 -8.20195 -21.8777 14.0372 -22.3035 36.0368 -16.1482 -12.7106 40.0288 -23.9772 8.18515 1.74073 -12.1514 -32.3954 34.0498 -9.1403 -28.4994 -4.1201 -0.509834 7.21428 -8.8091 12.4217 -3.59349 100.68 48.8138 -49.6352 -13.4587 10.789 99.9336 5.70609 25.4739 -13.9367 34.8259 -1.23484 -110.506 -11.7144 8.25751 15.8373 -6.28661 6.57862 16.2441 -1.98785e-015 0 -1.59028e-015 -4.81602 -9.62426 0.291635 0.716449 7.10524 8.09011 87.8869 64.3985 -68.8042 -7.95139e-016 1.59028e-015 6.36111e-015 
-3.30326 81.9947 6.71581 -39.5118 -84.6259 137.866 -0.201025 -13.8983 -8.29916 3.94637 -1.18701 -8.23381 -21.9091 13.9478 -22.2169 36.0576 -16.2542 -12.5588 40.1595 -24.0464 8.30769 1.69795 -12.0534 -32.3436 34.1767 -9.38826 -28.5815 -4.50518 -0.729311 7.37889 -8.90672 12.3924 -3.57509 100.612 48.6989 -49.5203 -13.2742 10.9437 100.165 6.27645 25.3806 -14.4741 34.8259 -1.23484 -110.506 -11.7144 8.25751 15.8373 -6.28661 6.57862 16.2441 1.32417e-031 -9.54166e-015 7.95139e-016 -4.81602 -9.62426 0.291635 0.716448 7.10524 8.09011 87.8869 64.3985 -68.8042 -1.19271e-015 -1.59028e-015 -0 
-3.23934 82.0291 6.68543 -40.6261 -84.7882 136.887 -0.285651 -13.9516 -8.32513 4.04379 -1.26964 -8.24537 -21.8154 14.0486 -22.1075 36.1099 -16.7333 -12.2993 40.2775 -24.114 8.36527 1.68121 -11.9605 -32.2619 34.2588 -9.55877 -28.682 -4.7438 -0.8698 7.58558 -8.96429 12.3588 -3.64315 100.719 48.7804 -49.5824 -13.1306 10.8998 100.258 6.77533 25.1474 -14.4647 34.8259 -1.23484 -110.506 -11.7144 8.25751 15.8373 -6.28661 6.57862 16.2441 -2.78299e-015 -6.36111e-015 -0 -4.81602 -9.62426 0.291635 0.716449 7.10524 8.09011 87.8869 64.3985 -68.8042 -1.19271e-015 -1.59028e-015 -3.18055e-015 
-3.18604 82.0418 6.65214 -41.0757 -84.9045 136.572 -0.27135 -14.0015 -8.34977 4.01229 -1.27306 -8.2719 -21.6823 13.9746 -22.0046 36.0649 -17.0581 -12.0884 40.4396 -24.1758 8.44711 1.66757 -11.8221 -32.1823 34.4045 -9.61848 -28.7198 -4.9093 -0.892753 7.70267 -8.99524 12.3613 -3.66319 100.815 48.8666 -49.5584 -12.9863 10.8777 100.454 7.30896 24.9238 -14.97 34.8259 -1.23484 -110.506 -11.7144 8.25751 15.8373 -6.28661 6.57862 16.2441 1.19271e-015 6.36111e-015 -0 -4.81602 -9.62426 0.291635 0.716448 7.10524 8.09011 87.8869 64.3985 -68.8042 -3.97569e-016 -7.95139e-016 -6.36111e-015 
-3.1429 82.0607 6.62542 -41.8153 -85.0222 135.945 -0.28376 -14.0272 -8.36699 4.05297 -1.3268 -8.28517 -21.5086 13.8754 -21.8595 35.9345 -17.5584 -11.8001 40.5512 -24.2384 8.5482 1.65952 -11.7269 -32.1511 34.4396 -9.65862 -28.7295 -4.98771 -0.927489 7.74522 -9.05023 12.3238 -3.72949 100.889 48.9522 -49.6109 -12.8619 10.8653 100.711 7.86053 24.7479 -15.3455 34.8259 -1.23484 -110.506 -11.7144 8.25751 15.8373 -6.28661 6.57862 16.2441 -3.97569e-016 6.36111e-015 -7.95139e-016 -4.81602 -9.62426 0.291635 0.716449 7.10524 8.09011 87.8869 64.3985 -68.8042 7.95139e-016 -7.95139e-016 -0 
-3.10767 82.1063 6.61074 -43.8456 -85.194 134.026 -0.327448 -14.0969 -8.37899 4.11116 -1.48835 -8.28513 -21.4266 13.6241 -21.6903 35.8848 -17.8742 -11.4858 40.6137 -24.2971 8.64085 1.66223 -11.5975 -32.1805 34.4609 -9.7478 -28.7381 -5.08259 -1.0224 7.8982 -9.09314 12.283 -3.67277 100.687 48.8068 -49.4516 -12.6431 11.0898 100.784 8.48727 24.6719 -15.0373 34.8259 -1.23484 -110.506 -11.7144 8.25751 15.8373 -6.28661 6.57862 16.2441 2.38542e-015 -6.36111e-015 1.59028e-015 -4.81602 -9.62426 0.291635 0.716449 7.10524 8.09011 87.8869 64.3985 -68.8042 3.97569e-015 -2.38542e-015 -3.18055e-015 
-3.07096 82.1503 6.59094 -46.0383 -85.3632 131.952 -0.398596 -14.167 -8.37586 4.20027 -1.66234 -8.26539 -21.228 13.4082 -21.4669 35.8546 -18.5044 -11.0208 40.6571 -24.3833 8.70665 1.64908 -11.4572 -32.2689 34.5237 -9.78831 -28.6865 -5.25954 -1.08413 8.09205 -9.11177 12.3297 -3.62141 100.929 48.8684 -49.5954 -12.8124 10.813 100.961 9.16859 24.5622 -15.1351 34.8259 -1.23484 -110.506 -11.7144 8.25751 15.8373 -6.28661 6.57862 16.2441 -0 0 1.98785e-015 -4.81602 -9.62426 0.291635 0.716449 7.10524 8.09011 87.8869 64.3985 -68.8042 -2.38542e-015 2.38542e-015 3.18055e-015 
-3.03205 82.1855 6.56462 -47.4752 -85.4906 130.645 -0.407242 -14.2059 -8.37039 4.20112 -1.76719 -8.25486 -21.0295 12.8499 -21.2619 35.7878 -18.7573 -10.6368 40.7549 -24.4745 8.76457 1.65209 -11.2819 -32.3401 34.3941 -9.92702 -28.6057 -5.13146 -1.28512 8.22492 -9.06002 12.3425 -3.60958 100.948 48.9225 -49.5962 -12.8863 10.7571 101.221 9.83932 24.5565 -15.4374 34.8259 -1.23484 -110.506 -11.7144 8.25751 15.8373 -6.28661 6.57862 16.2441 -2.78299e-015 3.18055e-015 -7.95139e-016 -4.81602 -9.62426 0.291635 0.716449 7.10524 8.09011 87.8869 64.3985 -68.8042 7.95139e-016 -7.95139e-016 -0 
-2.974 82.1773 6.53702 -46.7033 -85.5098 131.534 -0.422085 -14.0886 -8.35439 4.23771 -1.83441 -8.23441 -20.7993 12.3743 -21.0284 35.8006 -19.2178 -10.1524 40.8097 -24.5815 8.76974 1.69498 -11.0685 -32.4349 34.3105 -10.0667 -28.4385 -5.08862 -1.50824 8.34988 -9.05506 12.3047 -3.50797 101.055 48.8496 -49.6901 -13.0055 10.7573 101.494 10.4616 24.663 -15.7288 34.8259 -1.23484 -110.506 -11.7144 8.25751 15.8373 -6.28661 6.57862 16.2441 -4.41391e-032 3.18055e-015 7.95139e-016 -4.81602 -9.62426 0.291635 0.716449 7.10524 8.09011 87.8869 64.3985 -68.8042 -2.78299e-015 0 3.18055e-015 
